<svg width="59" height="72" viewBox="0 0 59 72" fill="none" xmlns="http://www.w3.org/2000/svg">
<path d="M56.4455 58.3625C54.9718 54.348 52.8331 50.7015 50.1486 47.6262C47.4723 44.5419 44.302 42.0829 40.8127 40.3848C40.7814 40.3668 40.7502 40.3578 40.7189 40.3398C45.5861 36.2969 48.7502 29.7113 48.7502 22.2812C48.7502 9.97266 40.0783 0 29.3752 0C18.6721 0 10.0002 9.97266 10.0002 22.2812C10.0002 29.7113 13.1643 36.2969 18.0314 40.3488C18.0002 40.3668 17.9689 40.3758 17.9377 40.3937C14.4377 42.0918 11.2971 44.5266 8.60176 47.6352C5.9198 50.7129 3.78148 54.3588 2.30488 58.3715C0.854275 62.2999 0.0719292 66.5117 0.000195359 70.7789C-0.00188984 70.8748 0.0127354 70.9702 0.0432096 71.0595C0.0736839 71.1488 0.11939 71.2301 0.177636 71.2988C0.235882 71.3675 0.305488 71.422 0.382353 71.4593C0.459218 71.4965 0.541788 71.5157 0.625195 71.5156H5.31269C5.65644 71.5156 5.92988 71.2012 5.93769 70.8148C6.09394 63.8789 8.51582 57.3832 12.7971 52.4598C17.2268 47.3656 23.1096 44.5625 29.3752 44.5625C35.6408 44.5625 41.5236 47.3656 45.9533 52.4598C50.2346 57.3832 52.6564 63.8789 52.8127 70.8148C52.8205 71.2102 53.0939 71.5156 53.4377 71.5156H58.1252C58.2086 71.5157 58.2912 71.4965 58.368 71.4593C58.4449 71.422 58.5145 71.3675 58.5727 71.2988C58.631 71.2301 58.6767 71.1488 58.7072 71.0595C58.7376 70.9702 58.7523 70.8748 58.7502 70.7789C58.6721 66.4844 57.8986 62.3066 56.4455 58.3625ZM29.3752 37.7344C25.7893 37.7344 22.4143 36.1262 19.8752 33.2062C17.3361 30.2863 15.9377 26.4051 15.9377 22.2812C15.9377 18.1574 17.3361 14.2762 19.8752 11.3562C22.4143 8.43633 25.7893 6.82812 29.3752 6.82812C32.9611 6.82812 36.3361 8.43633 38.8752 11.3562C41.4142 14.2762 42.8127 18.1574 42.8127 22.2812C42.8127 26.4051 41.4142 30.2863 38.8752 33.2062C36.3361 36.1262 32.9611 37.7344 29.3752 37.7344Z" fill="white"/>
</svg>
