<svg width="89" height="70" viewBox="0 0 89 70" fill="none" xmlns="http://www.w3.org/2000/svg">
<path d="M81.5161 22.7117V52.1816" stroke="url(#paint0_linear_96_1460)" stroke-width="3" stroke-linecap="round" stroke-linejoin="round"/>
<path d="M81.5161 68.4408C83.0304 68.4408 84.258 66.621 84.258 64.376C84.258 62.1311 83.0304 60.3112 81.5161 60.3112C80.0018 60.3112 78.7742 62.1311 78.7742 64.376C78.7742 66.621 80.0018 68.4408 81.5161 68.4408Z" stroke="url(#paint1_linear_96_1460)" stroke-width="2"/>
<path d="M67.8065 28.4795V57.3937L44.5001 67.4246L21.1936 57.3937V28.4795" stroke="url(#paint2_linear_96_1460)" stroke-width="3" stroke-linecap="round" stroke-linejoin="round"/>
<path d="M39.0161 2.3877L2 18.3191L39.0161 34.2505M49.9839 2.3877L87 18.3191L49.9839 34.2505V2.3877Z" stroke="url(#paint3_linear_96_1460)" stroke-width="3" stroke-linecap="round" stroke-linejoin="round"/>
<defs>
<linearGradient id="paint0_linear_96_1460" x1="-nan" y1="-nan" x2="-nan" y2="-nan" gradientUnits="userSpaceOnUse">
<stop stop-color="#E3405F"/>
<stop offset="0.80729" stop-color="#211870"/>
</linearGradient>
<linearGradient id="paint1_linear_96_1460" x1="81.5161" y1="60.3112" x2="81.5161" y2="68.4408" gradientUnits="userSpaceOnUse">
<stop stop-color="#E3405F"/>
<stop offset="0.80729" stop-color="#211870"/>
</linearGradient>
<linearGradient id="paint2_linear_96_1460" x1="44.5001" y1="28.4797" x2="44.5001" y2="67.4246" gradientUnits="userSpaceOnUse">
<stop stop-color="#E3405F"/>
<stop offset="0.80729" stop-color="#211870"/>
</linearGradient>
<linearGradient id="paint3_linear_96_1460" x1="44.5" y1="2.3877" x2="44.5" y2="34.2497" gradientUnits="userSpaceOnUse">
<stop stop-color="#E3405F"/>
<stop offset="0.81771" stop-color="#211870"/>
</linearGradient>
</defs>
</svg>
