<svg width="66" height="69" viewBox="0 0 66 69" fill="none" xmlns="http://www.w3.org/2000/svg">
<path d="M42.7419 7.48489C46.8004 11.6259 49.3405 17.0616 49.9374 22.8826C50.4595 27.9741 49.4672 33.0902 47.1154 37.576C46.5347 38.6836 46.6495 40.1665 47.6606 40.9026V40.9026C48.5714 41.6452 49.8011 42.5734 51.3495 43.641C52.898 44.7549 53.8999 45.4511 54.3554 45.8224C56.2682 47.2612 57.68 48.4679 58.6364 49.4426C60.0938 50.9279 61.3689 52.4595 62.462 54.084C63.6005 55.7084 64.4659 57.2865 65.149 58.911C65.7866 60.5354 66.1054 62.0671 65.9688 63.5523C65.8777 65.0375 65.3312 66.2907 64.3292 67.3118C63.3273 68.3329 62.0976 68.8899 60.6403 68.9827C59.2284 69.0755 57.68 68.797 56.1315 68.1008C54.5375 67.451 52.9435 66.5228 51.3951 65.3624C49.8011 64.2485 48.2982 62.9489 46.8408 61.4637C45.8844 60.489 44.7003 59.0502 43.334 57.1473C42.8786 56.5439 42.1954 55.5228 41.1935 54.084C40.1915 52.5987 39.3718 51.4384 38.6431 50.4637V50.4637C37.5201 49.0332 35.5483 48.7649 33.8504 49.4169C29.8469 50.9543 25.5063 51.4277 21.2431 50.7666C15.9678 49.9485 11.0865 47.4359 7.30962 43.5945C-2.43654 33.6156 -2.43654 17.4174 7.30962 7.48489C9.63514 5.11207 12.3968 3.22969 15.4367 1.94538C18.4766 0.661059 21.735 0 25.0258 0C28.3165 0 31.575 0.661059 34.6149 1.94538C37.6548 3.22969 40.4164 5.11207 42.7419 7.48489ZM36.3204 37.0038C39.2957 33.9495 40.9653 29.8203 40.9653 25.5165C40.9653 21.2127 39.2957 17.0835 36.3204 14.0292C34.8417 12.5178 33.0849 11.3186 31.1507 10.5004C29.2165 9.68217 27.1428 9.261 25.0486 9.261C22.9543 9.261 20.8806 9.68217 18.9464 10.5004C17.0122 11.3186 15.2554 12.5178 13.7767 14.0292C12.2937 15.5361 11.117 17.3265 10.3141 19.2977C9.51123 21.2689 9.09796 23.3822 9.09796 25.5165C9.09796 27.6508 9.51123 29.7641 10.3141 31.7353C11.117 33.7065 12.2937 35.4969 13.7767 37.0038C15.2554 38.5152 17.0122 39.7144 18.9464 40.5326C20.8806 41.3508 22.9543 41.772 25.0486 41.772C27.1428 41.772 29.2165 41.3508 31.1507 40.5326C33.0849 39.7144 34.8417 38.5152 36.3204 37.0038Z" fill="white"/>
</svg>
